<?xml version="1.0" encoding="UTF-8" standalone="no"?>
<!DOCTYPE svg PUBLIC "-//W3C//DTD SVG 1.1//EN"
 "http://www.w3.org/Graphics/SVG/1.1/DTD/svg11.dtd">
<!-- Generated by graphviz version 2.38.0 (20140413.2041)
 -->
<!-- Title: FST Pages: 1 -->
<svg width="612pt" height="478pt"
 viewBox="0.00 0.00 612.00 478.11" xmlns="http://www.w3.org/2000/svg" xmlns:xlink="http://www.w3.org/1999/xlink">
<g id="graph0" class="graph" transform="scale(0.467315 0.467315) rotate(0) translate(4 1019.11)">
<title>FST</title>
<polygon fill="white" stroke="none" points="-4,4 -4,-1019.11 1305.61,-1019.11 1305.61,4 -4,4"/>
<!-- 0 -->
<g id="node1" class="node"><title>0</title>
<ellipse fill="none" stroke="black" stroke-width="2" cx="18" cy="-564.31" rx="18" ry="18"/>
<text text-anchor="middle" x="18" y="-560.11" font-family="Times,serif" font-size="14.00">0</text>
</g>
<!-- 1 -->
<g id="node2" class="node"><title>1</title>
<ellipse fill="none" stroke="black" cx="210.178" cy="-564.31" rx="18" ry="18"/>
<ellipse fill="none" stroke="black" cx="210.178" cy="-564.31" rx="22" ry="22"/>
<text text-anchor="middle" x="210.178" y="-560.11" font-family="Times,serif" font-size="14.00">1</text>
</g>
<!-- 0&#45;&gt;1 -->
<g id="edge1" class="edge"><title>0&#45;&gt;1</title>
<path fill="none" stroke="black" d="M36.2124,-564.31C68.275,-564.31 137.553,-564.31 178.029,-564.31"/>
<polygon fill="black" stroke="black" points="178.143,-567.81 188.143,-564.31 178.143,-560.81 178.143,-567.81"/>
<text text-anchor="middle" x="112.089" y="-568.51" font-family="Times,serif" font-size="14.00">&lt;eps&gt;:&lt;eps&gt;/0.69315</text>
</g>
<!-- 0&#45;&gt;1 -->
<g id="edge2" class="edge"><title>0&#45;&gt;1</title>
<path fill="none" stroke="black" d="M32.4597,-553.09C37.8731,-549.268 44.3931,-545.468 51,-543.51 103.062,-528.076 120.729,-529.447 173.178,-543.51 176.385,-544.369 179.602,-545.592 182.722,-547.019"/>
<polygon fill="black" stroke="black" points="181.205,-550.176 191.682,-551.755 184.476,-543.987 181.205,-550.176"/>
<text text-anchor="middle" x="112.089" y="-548.51" font-family="Times,serif" font-size="14.00">sil:&lt;eps&gt;/0.69315</text>
</g>
<!-- 1&#45;&gt;1 -->
<g id="edge4" class="edge"><title>1&#45;&gt;1</title>
<path fill="none" stroke="black" d="M195.454,-580.745C190.661,-592.55 195.569,-604.31 210.178,-604.31 220.564,-604.31 226.047,-598.366 226.627,-590.688"/>
<polygon fill="black" stroke="black" points="230.06,-589.999 224.902,-580.745 223.163,-591.196 230.06,-589.999"/>
<text text-anchor="middle" x="210.178" y="-608.51" font-family="Times,serif" font-size="14.00">ow:o/0.69315</text>
</g>
<!-- 3 -->
<g id="node3" class="node"><title>3</title>
<ellipse fill="none" stroke="black" cx="416.324" cy="-791.31" rx="18" ry="18"/>
<text text-anchor="middle" x="416.324" y="-787.11" font-family="Times,serif" font-size="14.00">3</text>
</g>
<!-- 1&#45;&gt;3 -->
<g id="edge3" class="edge"><title>1&#45;&gt;3</title>
<path fill="none" stroke="black" d="M212.203,-586.428C214.795,-632.231 223.205,-735.205 247.178,-759.31 284.464,-796.801 351.151,-797.634 388.355,-794.656"/>
<polygon fill="black" stroke="black" points="388.831,-798.127 398.454,-793.694 388.167,-791.158 388.831,-798.127"/>
<text text-anchor="middle" x="299.596" y="-800.51" font-family="Times,serif" font-size="14.00">z:z</text>
</g>
<!-- 2 -->
<g id="node4" class="node"><title>2</title>
<ellipse fill="none" stroke="black" cx="1283.61" cy="-572.31" rx="18" ry="18"/>
<text text-anchor="middle" x="1283.61" y="-568.11" font-family="Times,serif" font-size="14.00">2</text>
</g>
<!-- 1&#45;&gt;2 -->
<g id="edge5" class="edge"><title>1&#45;&gt;2</title>
<path fill="none" stroke="black" d="M211.49,-586.313C212.86,-668.051 219.578,-950.983 247.178,-979.31 299.662,-1033.18 340.117,-998.31 415.324,-998.31 415.324,-998.31 415.324,-998.31 1089.46,-998.31 1183.47,-998.31 1206.51,-944.331 1250.61,-861.31 1274.39,-816.532 1280.56,-664.081 1282.11,-600.507"/>
<polygon fill="black" stroke="black" points="1285.61,-600.48 1282.33,-590.404 1278.61,-600.323 1285.61,-600.48"/>
<text text-anchor="middle" x="748.894" y="-1002.51" font-family="Times,serif" font-size="14.00">ow:o/0.69315</text>
</g>
<!-- 6 -->
<g id="node5" class="node"><title>6</title>
<ellipse fill="none" stroke="black" cx="416.324" cy="-845.31" rx="18" ry="18"/>
<text text-anchor="middle" x="416.324" y="-841.11" font-family="Times,serif" font-size="14.00">6</text>
</g>
<!-- 1&#45;&gt;6 -->
<g id="edge6" class="edge"><title>1&#45;&gt;6</title>
<path fill="none" stroke="black" d="M211.215,-586.568C211.785,-641.43 216.308,-781.035 247.178,-813.31 283.726,-851.52 350.701,-852.073 388.149,-848.857"/>
<polygon fill="black" stroke="black" points="388.721,-852.317 398.318,-847.827 388.016,-845.352 388.721,-852.317"/>
<text text-anchor="middle" x="299.596" y="-854.51" font-family="Times,serif" font-size="14.00">w:1</text>
</g>
<!-- 8 -->
<g id="node6" class="node"><title>8</title>
<ellipse fill="none" stroke="black" cx="416.324" cy="-952.31" rx="18" ry="18"/>
<text text-anchor="middle" x="416.324" y="-948.11" font-family="Times,serif" font-size="14.00">8</text>
</g>
<!-- 1&#45;&gt;8 -->
<g id="edge7" class="edge"><title>1&#45;&gt;8</title>
<path fill="none" stroke="black" d="M211.619,-586.352C213.386,-663.71 221.168,-919.492 247.178,-944.31 266.726,-962.962 345.756,-958.843 388.145,-955.117"/>
<polygon fill="black" stroke="black" points="388.686,-958.582 398.318,-954.168 388.036,-951.612 388.686,-958.582"/>
<text text-anchor="middle" x="299.596" y="-962.51" font-family="Times,serif" font-size="14.00">t:2</text>
</g>
<!-- 9 -->
<g id="node7" class="node"><title>9</title>
<ellipse fill="none" stroke="black" cx="416.324" cy="-587.31" rx="18" ry="18"/>
<text text-anchor="middle" x="416.324" y="-583.11" font-family="Times,serif" font-size="14.00">9</text>
</g>
<!-- 1&#45;&gt;9 -->
<g id="edge8" class="edge"><title>1&#45;&gt;9</title>
<path fill="none" stroke="black" d="M232.256,-566.684C269.476,-570.878 346.794,-579.589 388.032,-584.235"/>
<polygon fill="black" stroke="black" points="387.84,-587.735 398.169,-585.377 388.624,-580.779 387.84,-587.735"/>
<text text-anchor="middle" x="299.596" y="-584.51" font-family="Times,serif" font-size="14.00">th:3</text>
</g>
<!-- 11 -->
<g id="node8" class="node"><title>11</title>
<ellipse fill="none" stroke="black" cx="416.324" cy="-335.31" rx="20.8887" ry="20.8887"/>
<text text-anchor="middle" x="416.324" y="-331.11" font-family="Times,serif" font-size="14.00">11</text>
</g>
<!-- 1&#45;&gt;11 -->
<g id="edge9" class="edge"><title>1&#45;&gt;11</title>
<path fill="none" stroke="black" d="M212.055,-542.33C214.387,-495.712 222.364,-389.167 247.178,-364.51 283.618,-328.299 347.829,-327.744 385.477,-331.156"/>
<polygon fill="black" stroke="black" points="385.484,-334.677 395.797,-332.253 386.223,-327.716 385.484,-334.677"/>
<text text-anchor="middle" x="299.596" y="-369.51" font-family="Times,serif" font-size="14.00">f:4</text>
</g>
<!-- 13 -->
<g id="node9" class="node"><title>13</title>
<ellipse fill="none" stroke="black" cx="416.324" cy="-170.31" rx="20.8887" ry="20.8887"/>
<text text-anchor="middle" x="416.324" y="-166.11" font-family="Times,serif" font-size="14.00">13</text>
</g>
<!-- 1&#45;&gt;13 -->
<g id="edge10" class="edge"><title>1&#45;&gt;13</title>
<path fill="none" stroke="black" d="M211.79,-542.284C214.093,-466.789 223.36,-221.725 247.178,-196.51 282.596,-159.012 347.909,-160.474 385.869,-165.196"/>
<polygon fill="black" stroke="black" points="385.415,-168.667 395.803,-166.585 386.384,-161.734 385.415,-168.667"/>
<text text-anchor="middle" x="299.596" y="-201.51" font-family="Times,serif" font-size="14.00">f:5</text>
</g>
<!-- 15 -->
<g id="node10" class="node"><title>15</title>
<ellipse fill="none" stroke="black" cx="416.324" cy="-492.31" rx="20.8887" ry="20.8887"/>
<text text-anchor="middle" x="416.324" y="-488.11" font-family="Times,serif" font-size="14.00">15</text>
</g>
<!-- 1&#45;&gt;15 -->
<g id="edge11" class="edge"><title>1&#45;&gt;15</title>
<path fill="none" stroke="black" d="M219.403,-544.078C225.313,-532.257 234.488,-518.193 247.178,-510.51 289.857,-484.667 349.96,-485.113 385.553,-488.334"/>
<polygon fill="black" stroke="black" points="385.457,-491.843 395.766,-489.396 386.182,-484.88 385.457,-491.843"/>
<text text-anchor="middle" x="299.596" y="-515.51" font-family="Times,serif" font-size="14.00">s:6</text>
</g>
<!-- 18 -->
<g id="node11" class="node"><title>18</title>
<ellipse fill="none" stroke="black" cx="416.324" cy="-394.31" rx="20.8887" ry="20.8887"/>
<text text-anchor="middle" x="416.324" y="-390.11" font-family="Times,serif" font-size="14.00">18</text>
</g>
<!-- 1&#45;&gt;18 -->
<g id="edge12" class="edge"><title>1&#45;&gt;18</title>
<path fill="none" stroke="black" d="M213.308,-542.338C217.454,-504.508 227.933,-429.487 247.178,-412.51 285.256,-378.918 348.616,-382.404 385.728,-388.204"/>
<polygon fill="black" stroke="black" points="385.452,-391.708 395.901,-389.956 386.64,-384.809 385.452,-391.708"/>
<text text-anchor="middle" x="299.596" y="-417.51" font-family="Times,serif" font-size="14.00">s:7</text>
</g>
<!-- 22 -->
<g id="node12" class="node"><title>22</title>
<ellipse fill="none" stroke="black" cx="416.324" cy="-696.31" rx="20.8887" ry="20.8887"/>
<text text-anchor="middle" x="416.324" y="-692.11" font-family="Times,serif" font-size="14.00">22</text>
</g>
<!-- 1&#45;&gt;22 -->
<g id="edge13" class="edge"><title>1&#45;&gt;22</title>
<path fill="none" stroke="black" d="M210.208,-586.5C210.281,-615.783 215.367,-666.511 247.178,-691.31 287.009,-722.36 349.755,-713.743 386.281,-704.88"/>
<polygon fill="black" stroke="black" points="387.483,-708.185 396.285,-702.287 385.726,-701.409 387.483,-708.185"/>
<text text-anchor="middle" x="299.596" y="-717.51" font-family="Times,serif" font-size="14.00">ey:8</text>
</g>
<!-- 23 -->
<g id="node13" class="node"><title>23</title>
<ellipse fill="none" stroke="black" cx="416.324" cy="-72.3095" rx="20.8887" ry="20.8887"/>
<text text-anchor="middle" x="416.324" y="-68.1095" font-family="Times,serif" font-size="14.00">23</text>
</g>
<!-- 1&#45;&gt;23 -->
<g id="edge14" class="edge"><title>1&#45;&gt;23</title>
<path fill="none" stroke="black" d="M211.233,-542.301C211.67,-453.309 215.433,-123.286 247.178,-90.5095 282.935,-53.5898 348.407,-58.6496 386.241,-65.542"/>
<polygon fill="black" stroke="black" points="385.641,-68.9913 396.131,-67.5013 387.002,-62.1247 385.641,-68.9913"/>
<text text-anchor="middle" x="299.596" y="-95.5095" font-family="Times,serif" font-size="14.00">n:9</text>
</g>
<!-- 4 -->
<g id="node14" class="node"><title>4</title>
<ellipse fill="none" stroke="black" cx="647.835" cy="-791.31" rx="18" ry="18"/>
<text text-anchor="middle" x="647.835" y="-787.11" font-family="Times,serif" font-size="14.00">4</text>
</g>
<!-- 3&#45;&gt;4 -->
<g id="edge16" class="edge"><title>3&#45;&gt;4</title>
<path fill="none" stroke="black" d="M434.575,-791.31C474.131,-791.31 571.637,-791.31 619.474,-791.31"/>
<polygon fill="black" stroke="black" points="619.698,-794.81 629.698,-791.31 619.698,-787.81 619.698,-794.81"/>
<text text-anchor="middle" x="533.053" y="-795.51" font-family="Times,serif" font-size="14.00">iy:&lt;eps&gt;</text>
</g>
<!-- 2&#45;&gt;1 -->
<g id="edge15" class="edge"><title>2&#45;&gt;1</title>
<path fill="none" stroke="black" d="M1283.23,-554.071C1285.08,-469.696 1281.11,-121.31 1089.46,-121.31 415.324,-121.31 415.324,-121.31 415.324,-121.31 338.708,-121.31 297.617,-101.638 247.178,-159.31 222.816,-187.165 214.21,-441.13 211.894,-532.089"/>
<polygon fill="black" stroke="black" points="208.395,-532.019 211.648,-542.102 215.393,-532.191 208.395,-532.019"/>
<text text-anchor="middle" x="748.894" y="-125.51" font-family="Times,serif" font-size="14.00">sil:&lt;eps&gt;</text>
</g>
<!-- 7 -->
<g id="node16" class="node"><title>7</title>
<ellipse fill="none" stroke="black" cx="647.835" cy="-845.31" rx="18" ry="18"/>
<text text-anchor="middle" x="647.835" y="-841.11" font-family="Times,serif" font-size="14.00">7</text>
</g>
<!-- 6&#45;&gt;7 -->
<g id="edge20" class="edge"><title>6&#45;&gt;7</title>
<path fill="none" stroke="black" d="M434.575,-845.31C474.131,-845.31 571.637,-845.31 619.474,-845.31"/>
<polygon fill="black" stroke="black" points="619.698,-848.81 629.698,-845.31 619.698,-841.81 619.698,-848.81"/>
<text text-anchor="middle" x="533.053" y="-849.51" font-family="Times,serif" font-size="14.00">ah:&lt;eps&gt;</text>
</g>
<!-- 8&#45;&gt;1 -->
<g id="edge23" class="edge"><title>8&#45;&gt;1</title>
<path fill="none" stroke="black" d="M400.132,-944.114C387.562,-937.649 369.066,-928.86 352.014,-923.51 306.818,-909.329 279.382,-939.047 247.178,-904.31 226.467,-881.97 215.823,-676.83 212.418,-596.425"/>
<polygon fill="black" stroke="black" points="215.913,-596.224 212.003,-586.377 208.919,-596.513 215.913,-596.224"/>
<text text-anchor="middle" x="299.596" y="-928.51" font-family="Times,serif" font-size="14.00">uw:&lt;eps&gt;/0.69315</text>
</g>
<!-- 8&#45;&gt;2 -->
<g id="edge24" class="edge"><title>8&#45;&gt;2</title>
<path fill="none" stroke="black" d="M434.29,-950.565C472.299,-946.812 567.196,-938.31 646.835,-938.31 646.835,-938.31 646.835,-938.31 1089.46,-938.31 1192.61,-938.31 1204.5,-863.57 1250.61,-771.31 1278.55,-715.4 1283.08,-640.629 1283.27,-600.537"/>
<polygon fill="black" stroke="black" points="1286.77,-600.409 1283.22,-590.425 1279.77,-600.44 1286.77,-600.409"/>
<text text-anchor="middle" x="855.006" y="-942.51" font-family="Times,serif" font-size="14.00">uw:&lt;eps&gt;/0.69315</text>
</g>
<!-- 10 -->
<g id="node17" class="node"><title>10</title>
<ellipse fill="none" stroke="black" cx="647.835" cy="-596.31" rx="20.8887" ry="20.8887"/>
<text text-anchor="middle" x="647.835" y="-592.11" font-family="Times,serif" font-size="14.00">10</text>
</g>
<!-- 9&#45;&gt;10 -->
<g id="edge25" class="edge"><title>9&#45;&gt;10</title>
<path fill="none" stroke="black" d="M434.575,-587.986C473.439,-589.51 568.243,-593.228 616.918,-595.136"/>
<polygon fill="black" stroke="black" points="616.997,-598.642 627.126,-595.537 617.271,-591.647 616.997,-598.642"/>
<text text-anchor="middle" x="533.053" y="-598.51" font-family="Times,serif" font-size="14.00">r:&lt;eps&gt;</text>
</g>
<!-- 12 -->
<g id="node18" class="node"><title>12</title>
<ellipse fill="none" stroke="black" cx="647.835" cy="-327.31" rx="20.8887" ry="20.8887"/>
<text text-anchor="middle" x="647.835" y="-323.11" font-family="Times,serif" font-size="14.00">12</text>
</g>
<!-- 11&#45;&gt;12 -->
<g id="edge28" class="edge"><title>11&#45;&gt;12</title>
<path fill="none" stroke="black" d="M437.29,-334.614C477.661,-333.206 569.186,-330.016 616.797,-328.357"/>
<polygon fill="black" stroke="black" points="617.207,-331.845 627.079,-327.998 616.963,-324.849 617.207,-331.845"/>
<text text-anchor="middle" x="533.053" y="-337.51" font-family="Times,serif" font-size="14.00">ao:&lt;eps&gt;</text>
</g>
<!-- 14 -->
<g id="node19" class="node"><title>14</title>
<ellipse fill="none" stroke="black" cx="647.835" cy="-227.31" rx="20.8887" ry="20.8887"/>
<text text-anchor="middle" x="647.835" y="-223.11" font-family="Times,serif" font-size="14.00">14</text>
</g>
<!-- 13&#45;&gt;14 -->
<g id="edge31" class="edge"><title>13&#45;&gt;14</title>
<path fill="none" stroke="black" d="M437.198,-171.409C469.135,-173.616 533.558,-179.887 585.471,-196.51 597.588,-200.389 610.268,-206.388 620.935,-212.064"/>
<polygon fill="black" stroke="black" points="619.279,-215.148 629.727,-216.908 622.657,-209.017 619.279,-215.148"/>
<text text-anchor="middle" x="533.053" y="-201.51" font-family="Times,serif" font-size="14.00">ay:&lt;eps&gt;</text>
</g>
<!-- 16 -->
<g id="node20" class="node"><title>16</title>
<ellipse fill="none" stroke="black" cx="647.835" cy="-498.31" rx="20.8887" ry="20.8887"/>
<text text-anchor="middle" x="647.835" y="-494.11" font-family="Times,serif" font-size="14.00">16</text>
</g>
<!-- 15&#45;&gt;16 -->
<g id="edge34" class="edge"><title>15&#45;&gt;16</title>
<path fill="none" stroke="black" d="M437.29,-492.831C477.661,-493.887 569.186,-496.28 616.797,-497.524"/>
<polygon fill="black" stroke="black" points="616.991,-501.03 627.079,-497.793 617.174,-494.033 616.991,-501.03"/>
<text text-anchor="middle" x="533.053" y="-501.51" font-family="Times,serif" font-size="14.00">ih:&lt;eps&gt;</text>
</g>
<!-- 19 -->
<g id="node22" class="node"><title>19</title>
<ellipse fill="none" stroke="black" cx="647.835" cy="-386.31" rx="20.8887" ry="20.8887"/>
<text text-anchor="middle" x="647.835" y="-382.11" font-family="Times,serif" font-size="14.00">19</text>
</g>
<!-- 18&#45;&gt;19 -->
<g id="edge38" class="edge"><title>18&#45;&gt;19</title>
<path fill="none" stroke="black" d="M437.29,-393.614C477.661,-392.206 569.186,-389.016 616.797,-387.357"/>
<polygon fill="black" stroke="black" points="617.207,-390.845 627.079,-386.998 616.963,-383.849 617.207,-390.845"/>
<text text-anchor="middle" x="533.053" y="-396.51" font-family="Times,serif" font-size="14.00">eh:&lt;eps&gt;</text>
</g>
<!-- 22&#45;&gt;1 -->
<g id="edge43" class="edge"><title>22&#45;&gt;1</title>
<path fill="none" stroke="black" d="M397.393,-687.844C384.906,-682.238 367.737,-675.1 352.014,-670.51 306.544,-657.234 284.017,-681.087 247.178,-651.31 230.338,-637.697 221.286,-614.877 216.472,-596.024"/>
<polygon fill="black" stroke="black" points="219.834,-595.021 214.211,-586.041 213.007,-596.567 219.834,-595.021"/>
<text text-anchor="middle" x="299.596" y="-675.51" font-family="Times,serif" font-size="14.00">t:&lt;eps&gt;/0.69315</text>
</g>
<!-- 22&#45;&gt;2 -->
<g id="edge44" class="edge"><title>22&#45;&gt;2</title>
<path fill="none" stroke="black" d="M436.937,-693.874C476.54,-689.173 568.923,-679.31 646.835,-679.31 646.835,-679.31 646.835,-679.31 1089.46,-679.31 1160.49,-679.31 1229.89,-623.251 1262.8,-592.286"/>
<polygon fill="black" stroke="black" points="1265.59,-594.462 1270.36,-585.004 1260.73,-589.42 1265.59,-594.462"/>
<text text-anchor="middle" x="855.006" y="-683.51" font-family="Times,serif" font-size="14.00">t:&lt;eps&gt;/0.69315</text>
</g>
<!-- 24 -->
<g id="node25" class="node"><title>24</title>
<ellipse fill="none" stroke="black" cx="647.835" cy="-72.3095" rx="20.8887" ry="20.8887"/>
<text text-anchor="middle" x="647.835" y="-68.1095" font-family="Times,serif" font-size="14.00">24</text>
</g>
<!-- 23&#45;&gt;24 -->
<g id="edge45" class="edge"><title>23&#45;&gt;24</title>
<path fill="none" stroke="black" d="M437.29,-72.3095C477.661,-72.3095 569.186,-72.3095 616.797,-72.3095"/>
<polygon fill="black" stroke="black" points="617.079,-75.8096 627.079,-72.3095 617.079,-68.8096 617.079,-75.8096"/>
<text text-anchor="middle" x="533.053" y="-76.5095" font-family="Times,serif" font-size="14.00">ay:&lt;eps&gt;</text>
</g>
<!-- 5 -->
<g id="node15" class="node"><title>5</title>
<ellipse fill="none" stroke="black" cx="855.006" cy="-745.31" rx="18" ry="18"/>
<text text-anchor="middle" x="855.006" y="-741.11" font-family="Times,serif" font-size="14.00">5</text>
</g>
<!-- 4&#45;&gt;5 -->
<g id="edge17" class="edge"><title>4&#45;&gt;5</title>
<path fill="none" stroke="black" d="M665.625,-787.545C701.181,-779.573 784.323,-760.933 827.272,-751.303"/>
<polygon fill="black" stroke="black" points="828.28,-754.664 837.272,-749.061 826.748,-747.834 828.28,-754.664"/>
<text text-anchor="middle" x="748.894" y="-781.51" font-family="Times,serif" font-size="14.00">r:&lt;eps&gt;</text>
</g>
<!-- 5&#45;&gt;1 -->
<g id="edge18" class="edge"><title>5&#45;&gt;1</title>
<path fill="none" stroke="black" d="M836.731,-746.158C742.562,-750.62 293.678,-769.748 247.178,-731.31 226.799,-714.463 217.344,-640.074 213.482,-596.469"/>
<polygon fill="black" stroke="black" points="216.958,-596.034 212.638,-586.36 209.982,-596.617 216.958,-596.034"/>
<text text-anchor="middle" x="533.053" y="-759.51" font-family="Times,serif" font-size="14.00">ow:&lt;eps&gt;/0.69315</text>
</g>
<!-- 5&#45;&gt;2 -->
<g id="edge19" class="edge"><title>5&#45;&gt;2</title>
<path fill="none" stroke="black" d="M872.853,-748.954C932.781,-760.854 1138.04,-792.367 1250.61,-693.31 1276.68,-670.372 1282.67,-628.928 1283.49,-601.016"/>
<polygon fill="black" stroke="black" points="1287,-600.721 1283.58,-590.691 1280,-600.66 1287,-600.721"/>
<text text-anchor="middle" x="1088.46" y="-767.51" font-family="Times,serif" font-size="14.00">ow:&lt;eps&gt;/0.69315</text>
</g>
<!-- 7&#45;&gt;1 -->
<g id="edge21" class="edge"><title>7&#45;&gt;1</title>
<path fill="none" stroke="black" d="M631.019,-852.094C618.82,-856.987 601.394,-863.249 585.471,-866.31 511.637,-880.5 303.143,-921.515 247.178,-871.31 226.952,-853.165 216.196,-671.565 212.586,-596.509"/>
<polygon fill="black" stroke="black" points="216.069,-596.066 212.105,-586.241 209.077,-596.393 216.069,-596.066"/>
<text text-anchor="middle" x="416.324" y="-900.51" font-family="Times,serif" font-size="14.00">n:&lt;eps&gt;/0.69315</text>
</g>
<!-- 7&#45;&gt;2 -->
<g id="edge22" class="edge"><title>7&#45;&gt;2</title>
<path fill="none" stroke="black" d="M666.218,-845.095C730.518,-843.897 960.497,-836.025 1140.88,-784.31 1192.58,-769.488 1217.38,-775.597 1250.61,-733.31 1266.57,-712.996 1275.97,-640.706 1280.1,-600.247"/>
<polygon fill="black" stroke="black" points="1283.59,-600.516 1281.08,-590.222 1276.63,-599.834 1283.59,-600.516"/>
<text text-anchor="middle" x="971.734" y="-830.51" font-family="Times,serif" font-size="14.00">n:&lt;eps&gt;/0.69315</text>
</g>
<!-- 10&#45;&gt;1 -->
<g id="edge26" class="edge"><title>10&#45;&gt;1</title>
<path fill="none" stroke="black" d="M628.376,-603.619C616.367,-607.973 600.247,-613.074 585.471,-615.31 436.682,-637.817 382.443,-667.248 247.178,-601.31 241.257,-598.423 235.768,-594.144 230.952,-589.51"/>
<polygon fill="black" stroke="black" points="233.37,-586.973 223.971,-582.085 228.271,-591.768 233.37,-586.973"/>
<text text-anchor="middle" x="416.324" y="-646.51" font-family="Times,serif" font-size="14.00">iy:&lt;eps&gt;/0.69315</text>
</g>
<!-- 10&#45;&gt;2 -->
<g id="edge27" class="edge"><title>10&#45;&gt;2</title>
<path fill="none" stroke="black" d="M668.502,-597.827C744.299,-603.258 1024.53,-619.508 1250.61,-582.31 1252.67,-581.97 1254.79,-581.529 1256.9,-581.021"/>
<polygon fill="black" stroke="black" points="1257.87,-584.383 1266.54,-578.293 1255.97,-577.647 1257.87,-584.383"/>
<text text-anchor="middle" x="971.734" y="-610.51" font-family="Times,serif" font-size="14.00">iy:&lt;eps&gt;/0.69315</text>
</g>
<!-- 12&#45;&gt;1 -->
<g id="edge29" class="edge"><title>12&#45;&gt;1</title>
<path fill="none" stroke="black" d="M628.65,-319.281C564.163,-292.169 345.057,-211.899 247.178,-326.31 221.22,-356.652 213.956,-474.323 211.941,-532.031"/>
<polygon fill="black" stroke="black" points="208.441,-531.969 211.623,-542.074 215.438,-532.19 208.441,-531.969"/>
<text text-anchor="middle" x="416.324" y="-275.51" font-family="Times,serif" font-size="14.00">r:&lt;eps&gt;/0.69315</text>
</g>
<!-- 12&#45;&gt;2 -->
<g id="edge30" class="edge"><title>12&#45;&gt;2</title>
<path fill="none" stroke="black" d="M668.821,-328.649C724.914,-332.674 888.379,-346.237 1021.04,-375.51 1075.58,-387.543 1088.52,-393.891 1140.88,-413.31 1190.62,-431.756 1215.54,-420.5 1250.61,-460.31 1271.1,-483.573 1278.53,-519.142 1281.19,-543.934"/>
<polygon fill="black" stroke="black" points="1277.72,-544.5 1282.08,-554.157 1284.7,-543.89 1277.72,-544.5"/>
<text text-anchor="middle" x="971.734" y="-380.51" font-family="Times,serif" font-size="14.00">r:&lt;eps&gt;/0.69315</text>
</g>
<!-- 14&#45;&gt;1 -->
<g id="edge32" class="edge"><title>14&#45;&gt;1</title>
<path fill="none" stroke="black" d="M626.998,-226.078C553.696,-221.989 299.649,-212.079 247.178,-267.31 211.692,-304.662 209.586,-462.484 210.435,-531.628"/>
<polygon fill="black" stroke="black" points="206.94,-531.986 210.592,-541.932 213.94,-531.88 206.94,-531.986"/>
<text text-anchor="middle" x="416.324" y="-233.51" font-family="Times,serif" font-size="14.00">v:&lt;eps&gt;/0.69315</text>
</g>
<!-- 14&#45;&gt;2 -->
<g id="edge33" class="edge"><title>14&#45;&gt;2</title>
<path fill="none" stroke="black" d="M668.6,-226.652C753.666,-224.992 1091.47,-230.596 1250.61,-415.31 1266.99,-434.325 1276.18,-504.544 1280.17,-544.33"/>
<polygon fill="black" stroke="black" points="1276.71,-544.823 1281.14,-554.444 1283.67,-544.155 1276.71,-544.823"/>
<text text-anchor="middle" x="971.734" y="-279.51" font-family="Times,serif" font-size="14.00">v:&lt;eps&gt;/0.69315</text>
</g>
<!-- 17 -->
<g id="node21" class="node"><title>17</title>
<ellipse fill="none" stroke="black" cx="855.006" cy="-547.31" rx="20.8887" ry="20.8887"/>
<text text-anchor="middle" x="855.006" y="-543.11" font-family="Times,serif" font-size="14.00">17</text>
</g>
<!-- 16&#45;&gt;17 -->
<g id="edge35" class="edge"><title>16&#45;&gt;17</title>
<path fill="none" stroke="black" d="M668.521,-499.017C695.768,-500.415 746.288,-504.53 787.588,-516.51 801.266,-520.477 815.694,-526.872 827.596,-532.809"/>
<polygon fill="black" stroke="black" points="826.044,-535.947 836.536,-537.417 829.251,-529.725 826.044,-535.947"/>
<text text-anchor="middle" x="748.894" y="-521.51" font-family="Times,serif" font-size="14.00">k:&lt;eps&gt;</text>
</g>
<!-- 17&#45;&gt;1 -->
<g id="edge36" class="edge"><title>17&#45;&gt;1</title>
<path fill="none" stroke="black" d="M834.104,-547.836C741.804,-550.277 355.148,-560.502 242.252,-563.488"/>
<polygon fill="black" stroke="black" points="242.105,-559.99 232.201,-563.754 242.29,-566.988 242.105,-559.99"/>
<text text-anchor="middle" x="533.053" y="-561.51" font-family="Times,serif" font-size="14.00">s:&lt;eps&gt;/0.69315</text>
</g>
<!-- 17&#45;&gt;2 -->
<g id="edge37" class="edge"><title>17&#45;&gt;2</title>
<path fill="none" stroke="black" d="M875.727,-548.465C944.746,-552.51 1175.56,-566.036 1255.26,-570.707"/>
<polygon fill="black" stroke="black" points="1255.29,-574.214 1265.48,-571.305 1255.7,-567.226 1255.29,-574.214"/>
<text text-anchor="middle" x="1088.46" y="-568.51" font-family="Times,serif" font-size="14.00">s:&lt;eps&gt;/0.69315</text>
</g>
<!-- 20 -->
<g id="node23" class="node"><title>20</title>
<ellipse fill="none" stroke="black" cx="855.006" cy="-392.31" rx="20.8887" ry="20.8887"/>
<text text-anchor="middle" x="855.006" y="-388.11" font-family="Times,serif" font-size="14.00">20</text>
</g>
<!-- 19&#45;&gt;20 -->
<g id="edge39" class="edge"><title>19&#45;&gt;20</title>
<path fill="none" stroke="black" d="M668.882,-386.896C705.134,-387.956 781.757,-390.197 824.178,-391.437"/>
<polygon fill="black" stroke="black" points="824.083,-394.936 834.181,-391.73 824.287,-387.939 824.083,-394.936"/>
<text text-anchor="middle" x="748.894" y="-394.51" font-family="Times,serif" font-size="14.00">v:&lt;eps&gt;</text>
</g>
<!-- 21 -->
<g id="node24" class="node"><title>21</title>
<ellipse fill="none" stroke="black" cx="1088.46" cy="-443.31" rx="20.8887" ry="20.8887"/>
<text text-anchor="middle" x="1088.46" y="-439.11" font-family="Times,serif" font-size="14.00">21</text>
</g>
<!-- 20&#45;&gt;21 -->
<g id="edge40" class="edge"><title>20&#45;&gt;21</title>
<path fill="none" stroke="black" d="M875.707,-392.745C907.056,-393.875 969.97,-397.933 1021.04,-412.51 1034.74,-416.418 1049.17,-422.805 1061.07,-428.753"/>
<polygon fill="black" stroke="black" points="1059.51,-431.89 1070.01,-433.373 1062.73,-425.672 1059.51,-431.89"/>
<text text-anchor="middle" x="971.734" y="-417.51" font-family="Times,serif" font-size="14.00">ah:&lt;eps&gt;</text>
</g>
<!-- 21&#45;&gt;1 -->
<g id="edge41" class="edge"><title>21&#45;&gt;1</title>
<path fill="none" stroke="black" d="M1067.65,-443.31C1027.64,-443.31 934.364,-443.31 856.006,-443.31 415.324,-443.31 415.324,-443.31 415.324,-443.31 338.507,-443.31 306.273,-434.232 247.178,-483.31 232.178,-495.767 223.208,-515.735 217.973,-532.727"/>
<polygon fill="black" stroke="black" points="214.471,-532.258 215.175,-542.829 221.217,-534.126 214.471,-532.258"/>
<text text-anchor="middle" x="647.835" y="-447.51" font-family="Times,serif" font-size="14.00">n:&lt;eps&gt;/0.69315</text>
</g>
<!-- 21&#45;&gt;2 -->
<g id="edge42" class="edge"><title>21&#45;&gt;2</title>
<path fill="none" stroke="black" d="M1108.68,-448.239C1141.19,-457.386 1207.68,-479.673 1250.61,-518.51 1259.28,-526.355 1266.32,-537.111 1271.56,-546.945"/>
<polygon fill="black" stroke="black" points="1268.45,-548.56 1276.03,-555.964 1274.73,-545.45 1268.45,-548.56"/>
<text text-anchor="middle" x="1203.25" y="-523.51" font-family="Times,serif" font-size="14.00">n:&lt;eps&gt;/0.69315</text>
</g>
<!-- 24&#45;&gt;1 -->
<g id="edge46" class="edge"><title>24&#45;&gt;1</title>
<path fill="none" stroke="black" d="M628.968,-63.4984C564.619,-33.1376 343.441,59.0523 247.178,-57.3095 216.963,-93.8333 212.108,-426.221 211.327,-532.083"/>
<polygon fill="black" stroke="black" points="207.827,-532.144 211.261,-542.167 214.827,-532.19 207.827,-532.144"/>
<text text-anchor="middle" x="416.324" y="-13.5095" font-family="Times,serif" font-size="14.00">n:&lt;eps&gt;/0.69315</text>
</g>
<!-- 24&#45;&gt;2 -->
<g id="edge47" class="edge"><title>24&#45;&gt;2</title>
<path fill="none" stroke="black" d="M667.768,-65.7526C750.779,-38.3311 1085.77,58.2531 1250.61,-107.31 1281.43,-138.265 1283.03,-447.82 1282.77,-543.972"/>
<polygon fill="black" stroke="black" points="1279.27,-544.097 1282.73,-554.11 1286.27,-544.122 1279.27,-544.097"/>
<text text-anchor="middle" x="971.734" y="-19.5095" font-family="Times,serif" font-size="14.00">n:&lt;eps&gt;/0.69315</text>
</g>
</g>
</svg>
